<?xml version="1.0" encoding="UTF-8"?> <svg xmlns="http://www.w3.org/2000/svg" xmlns:xlink="http://www.w3.org/1999/xlink" id="Layer_1" version="1.1" viewBox="0 0 800 800"><defs><style> .st0 { fill: #f40e0e; } .st1 { fill: #090108; } </style></defs><g><path class="st1" d="M307.4,321.2c2.6.5,4.9,1.8,6.9,3.9,2,2.1,3,4.5,3,7.4s-.2,2.7-.6,3.9l-10.7,35h2.2l10.6-35c2.3-8,7.7-13.1,16-15.2h-27.4ZM287.6,432l-8.6-26.6h-13.3l16.6,51.5,15.6-51.5h-2.3l-8.1,26.6ZM257,337.3c-.5-1.4-.8-3-.8-4.7s.6-4.6,1.8-6.9c1.2-2.3,2.9-3.8,5.3-4.6h-32.9c2.3.9,4.4,2.3,6,4.1,1.7,1.8,3.1,3.9,4.3,6.1,1.2,2.3,2.2,4.6,3,7,.9,2.4,1.7,4.7,2.6,6.9l-7.9,26.1h2.3l6.8-22.4,7.2,22.4h13.3l-11-34ZM220.1,432l-8.6-26.6h-13.6l16.9,51.5,15.6-51.5h-2.3l-8.1,26.6ZM189.6,337.3c-.2-.6-.4-1.4-.6-2.2-.1-.9-.2-1.6-.2-2.2,0-2.3.6-4.7,1.7-7,1.2-2.3,2.9-3.9,5.3-4.7h-32.9c3.4,1.4,6.1,3.6,8.1,6.6,2,3,3.5,6.1,4.6,9.3l11.2,34.2h13.7l-11-34Z"></path><path class="st1" d="M479,371.4h13v-34.6c0-3.5.6-6.7,1.9-9.5,1.2-2.8,3.7-4.9,7.5-6h-21.4l-21.3,50.2h2.5l17.8-41.8v41.8ZM493.9,451.2c-1.2-2.9-1.9-6.1-1.9-9.6v-36.2h-13v36.2c0,3.6-.7,6.9-2,9.7-1.3,2.9-3.8,4.9-7.6,6h31.9c-3.8-1.2-6.3-3.2-7.5-6.1ZM430.4,438.1l-16-32.7h-14.8l25.1,51.7,22-51.7h-2.5l-13.9,32.7ZM346.9,321.2c3.8,1.2,7,3.1,9.8,5.8,2.8,2.7,4.2,6.2,4.2,10.5v33.8h2.1v-41l20,41h14.7l-24.5-50.2h-26.3ZM363.1,440v-34.6h-2.1v34.6c0,4.5-1.3,8.2-3.9,11-2.6,2.8-6,4.9-10.1,6.3h30.3c-4.1-1.4-7.5-3.5-10.2-6.2-2.7-2.7-4-6.4-4-11.1Z"></path><path class="st1" d="M602.8,457.3h34.2c-3.4-1-6.1-3-8.3-6-2.1-3-3.8-6-5-9.1l-13.9-36.8h-13.8c.7,1.8,1.7,4.2,2.9,7.3,1.6,4.1,3.3,8.4,5,12.8,1.8,4.5,3.3,8.6,4.6,12.5,1.3,3.9,2,6.6,2,8,0,2.3-.8,4.6-2.2,6.8-1.5,2.2-3.3,3.7-5.5,4.5ZM577.4,319.4l-19.9,51.9h2.5l11.6-30.3,11.4,30.3h14.1l-19.7-51.9ZM535.2,436.7l12-31.3h-2.7l-14.2,37.1c-1.2,2.8-3.1,5.8-5.8,8.7-2.7,3-5.6,5-8.5,6h28.4c-3-1-5.5-2.5-7.7-4.5-2.1-2-3.2-4.6-3.2-8s.2-2.8.5-4.2c.3-1.4.7-2.7,1.3-4Z"></path></g><g><path class="st1" d="M169.1,379.8h2.4l3.8,14.6,4.1-14.6h2.5l3.9,14.5,3.8-14.5h2.4l-5,17.2h-2.5l-4-13.9-4.1,13.9h-2.5s-4.8-17.2-4.8-17.2Z"></path><path class="st1" d="M219.1,393.2h-7.5l-1.4,3.8h-2.4l6.2-17.1h2.6l6.2,17.1h-2.4l-1.4-3.8ZM215.3,382.7l-3.1,8.7h6.2l-3.1-8.7Z"></path><path class="st1" d="M239.9,379.9h2.4l6.3,14.1,6.3-14.1h2.4v17.1h-2.2v-12.8l-5.7,12.8h-1.6l-5.7-12.8v12.8h-2.2v-17.1h0Z"></path><path class="st1" d="M283.3,397.2c-4.8,0-8.6-3.6-8.6-8.8s3.8-8.8,8.6-8.8,8.6,3.6,8.6,8.8-3.8,8.8-8.6,8.8ZM283.3,395.2c3.6,0,6.4-2.6,6.4-6.8s-2.7-6.8-6.4-6.8-6.4,2.6-6.4,6.8,2.7,6.8,6.4,6.8Z"></path><path class="st1" d="M317,379.6c3.7,0,6.7,1.9,8,5.2h-2.7c-.9-2.1-2.8-3.2-5.3-3.2-3.6,0-6.3,2.6-6.3,6.8s2.7,6.8,6.3,6.8,4.4-1.2,5.3-3.2h2.7c-1.3,3.3-4.2,5.2-8,5.2s-8.6-3.6-8.6-8.8,3.8-8.8,8.6-8.8Z"></path><path class="st1" d="M350.5,397.2c-4.8,0-8.6-3.6-8.6-8.8s3.8-8.8,8.6-8.8,8.6,3.6,8.6,8.8-3.8,8.8-8.6,8.8ZM350.5,395.2c3.6,0,6.4-2.6,6.4-6.8s-2.7-6.8-6.4-6.8-6.4,2.6-6.4,6.8,2.7,6.8,6.4,6.8Z"></path><path class="st1" d="M389.9,379.8v17.2h-2.2l-9-13.7v13.7h-2.2v-17.2h2.2l9,13.7v-13.7h2.2Z"></path><path class="st1" d="M439.2,393.2h-7.5l-1.4,3.8h-2.4l6.2-17.1h2.6l6.2,17.1h-2.4l-1.4-3.8ZM435.5,382.7l-3.1,8.7h6.2l-3.1-8.7Z"></path><path class="st1" d="M467.8,379.6c3.7,0,6.7,1.9,8,5.2h-2.7c-.9-2.1-2.8-3.2-5.3-3.2-3.6,0-6.3,2.6-6.3,6.8s2.7,6.8,6.3,6.8,4.4-1.2,5.3-3.2h2.7c-1.3,3.3-4.2,5.2-8,5.2s-8.6-3.6-8.6-8.8,3.8-8.8,8.6-8.8Z"></path><path class="st1" d="M503.6,393.2h-7.5l-1.4,3.8h-2.4l6.2-17.1h2.6l6.2,17.1h-2.4l-1.4-3.8ZM499.8,382.7l-3.1,8.7h6.2l-3.1-8.7Z"></path><path class="st1" d="M538.9,388.4c0,5.3-3.5,8.6-9.1,8.6h-5.4v-17.2h5.4c5.6,0,9.1,3.3,9.1,8.6ZM529.8,395.2c4.5,0,6.8-2.5,6.8-6.7s-2.3-6.8-6.8-6.8h-3.1v13.5h3.1Z"></path><path class="st1" d="M565.5,381.6h-7v5.8h6.3v1.9h-6.3v5.9h7v1.9h-9.3v-17.2h9.3v1.8Z"></path><path class="st1" d="M583.2,379.9h2.4l6.3,14.1,6.3-14.1h2.4v17.1h-2.2v-12.8l-5.7,12.8h-1.6l-5.7-12.8v12.8h-2.2v-17.1h0Z"></path><path class="st1" d="M617.4,379.8h2.5l4.2,8.7,4.2-8.7h2.5l-5.6,10.7v6.5h-2.2v-6.5l-5.6-10.7Z"></path></g><g><path class="st0" d="M247.2,468.6h1.2v11.9h-1.2v-11.9Z"></path><path class="st0" d="M260.3,469.7h-4.2v-1.1h9.6v1.1h-4.2v10.8h-1.2v-10.8h0Z"></path><path class="st0" d="M272.5,474h4.4v1h-4.4v-1Z"></path><path class="st0" d="M305.3,475.4c.4.5.6,1.1.6,1.9s-.4,1.8-1.1,2.3c-.8.5-1.9.8-3.3.8h-5.5v-11.9h5.1c1.3,0,2.3.3,3.1.8s1.1,1.3,1.1,2.2-.2,1.2-.5,1.7c-.3.5-.8.8-1.3,1,.8.2,1.4.5,1.8,1ZM297.2,469.6v4.3h3.8c1,0,1.7-.2,2.2-.5s.8-.9.8-1.6-.3-1.2-.8-1.6-1.3-.5-2.2-.5h-3.8ZM303.8,478.9c.5-.4.8-.9.8-1.7,0-1.5-1.1-2.2-3.2-2.2h-4.2v4.5h4.2c1.1,0,1.9-.2,2.4-.5Z"></path><path class="st0" d="M314.5,468.6h1.2v11.9h-1.2v-11.9Z"></path><path class="st0" d="M325.4,468.6h1.2v10.8h6.6v1.1h-7.9v-11.8Z"></path><path class="st0" d="M341.1,468.6h4.8c1.2,0,2.4.2,3.3.8,1,.5,1.7,1.2,2.2,2.1.5.9.8,1.9.8,3.1s-.3,2.2-.8,3.1c-.5.9-1.3,1.6-2.2,2.1s-2.1.8-3.3.8h-4.8v-11.8ZM345.9,479.4c1,0,2-.2,2.7-.6s1.4-1,1.8-1.7.6-1.6.6-2.5-.2-1.8-.6-2.5c-.4-.7-1-1.3-1.8-1.7s-1.7-.6-2.7-.6h-3.5v9.7h3.5Z"></path><path class="st0" d="M362,479.2c-.9-.9-1.3-2.2-1.3-3.8v-6.8h1.2v6.7c0,1.4.3,2.4.9,3.1s1.5,1,2.7,1,2.1-.3,2.7-1,.9-1.7.9-3.1v-6.7h1.2v6.8c0,1.7-.4,3-1.3,3.8s-2,1.3-3.6,1.3-2.7-.4-3.6-1.3Z"></path><path class="st0" d="M389.9,468.6v11.9h-1l-7.6-9.6v9.6h-1.2v-11.9h1l7.6,9.6v-9.6h1.2Z"></path><path class="st0" d="M407.9,474.5h1.2v4.5c-.5.5-1.2.9-2,1.1-.8.3-1.5.4-2.4.4s-2.2-.3-3.2-.8-1.7-1.2-2.2-2.2-.8-2-.8-3.1.3-2.2.8-3.1c.5-.9,1.3-1.6,2.2-2.2,1-.5,2-.8,3.2-.8s1.7.1,2.5.4,1.4.7,1.9,1.3l-.8.8c-.9-.9-2.1-1.4-3.6-1.4s-1.8.2-2.6.6c-.8.4-1.4,1-1.8,1.8s-.7,1.6-.7,2.5.2,1.8.7,2.5,1,1.3,1.8,1.8c.8.4,1.6.6,2.6.6s2.2-.3,3.1-.9v-4h0Z"></path><path class="st0" d="M419.1,480.1c-.8-.3-1.4-.6-1.9-1.1l.5-1c.4.4,1,.8,1.7,1,.7.3,1.4.4,2.2.4s1.9-.2,2.4-.6c.5-.4.8-.9.8-1.5s-.1-.9-.4-1.1c-.3-.3-.6-.5-1.1-.6-.4-.1-1-.3-1.7-.5-.9-.2-1.6-.4-2.1-.6s-1-.5-1.4-1c-.4-.4-.6-1-.6-1.7s.2-1.1.5-1.6c.3-.5.8-.9,1.5-1.2.6-.3,1.5-.4,2.4-.4s1.3,0,2,.3,1.2.4,1.7.8l-.4,1c-.5-.3-1-.6-1.6-.7-.6-.2-1.1-.2-1.7-.2-1,0-1.8.2-2.3.6s-.8.9-.8,1.5.1.9.4,1.1c.3.3.6.5,1.1.7s1,.3,1.8.5c.9.2,1.6.4,2.1.6.5.2,1,.5,1.4,1,.4.4.6,1,.6,1.7s-.2,1.1-.5,1.6-.8.9-1.5,1.2-1.5.4-2.5.4c-.9,0-1.7-.2-2.5-.4Z"></path><path class="st0" d="M443.1,479.4v1.1h-9.7v-.9l7.9-9.9h-7.7v-1.1h9.4v.9l-7.8,9.9h8Z"></path><path class="st0" d="M459.7,479.4v1.1h-8.4v-11.9h8.1v1.1h-6.9v4.2h6.1v1.1h-6.1v4.4h7.1Z"></path><path class="st0" d="M478.3,468.6v11.9h-1l-7.6-9.6v9.6h-1.2v-11.9h1l7.6,9.6v-9.6h1.2Z"></path><path class="st0" d="M490.2,469.7h-4.2v-1.1h9.6v1.1h-4.2v10.8h-1.2v-10.8h0Z"></path><path class="st0" d="M511.5,480.5l-2.7-3.8c-.3,0-.6,0-1,0h-3.2v3.8h-1.2v-11.9h4.4c1.5,0,2.7.4,3.5,1.1.9.7,1.3,1.7,1.3,3s-.2,1.7-.7,2.3c-.5.6-1.1,1.1-2,1.4l2.9,4.1h-1.4ZM510.5,474.9c.6-.5.9-1.2.9-2.2s-.3-1.7-.9-2.2c-.6-.5-1.5-.8-2.7-.8h-3.1v5.9h3.1c1.2,0,2.1-.3,2.7-.8Z"></path><path class="st0" d="M522.5,479.2c-.9-.9-1.3-2.2-1.3-3.8v-6.8h1.2v6.7c0,1.4.3,2.4.9,3.1s1.5,1,2.7,1,2.1-.3,2.7-1,.9-1.7.9-3.1v-6.7h1.2v6.8c0,1.7-.4,3-1.3,3.8-.8.9-2,1.3-3.6,1.3s-2.7-.4-3.6-1.3Z"></path><path class="st0" d="M552.8,468.6v11.9h-1.2v-9.5l-4.7,8h-.6l-4.7-7.9v9.4h-1.2v-11.9h1l5.2,8.8,5.1-8.8h1Z"></path></g></svg> 