<svg width="189" height="43" viewBox="0 0 189 43" fill="none" xmlns="http://www.w3.org/2000/svg">
<!-- DARK-MODE VARIANT. Regenerate from footerlogo.svg.
     WAMOCON Academy — IT-Bildungszentrum. Source: academy-logo.svg (800x800),
     scaled to 30px tall and recoloured to the brand tokens. -->
<g transform="translate(-29.82 -51.67) scale(0.18293)"><g><path fill="#EDF2F5" d="M307.4,321.2c2.6.5,4.9,1.8,6.9,3.9,2,2.1,3,4.5,3,7.4s-.2,2.7-.6,3.9l-10.7,35h2.2l10.6-35c2.3-8,7.7-13.1,16-15.2h-27.4ZM287.6,432l-8.6-26.6h-13.3l16.6,51.5,15.6-51.5h-2.3l-8.1,26.6ZM257,337.3c-.5-1.4-.8-3-.8-4.7s.6-4.6,1.8-6.9c1.2-2.3,2.9-3.8,5.3-4.6h-32.9c2.3.9,4.4,2.3,6,4.1,1.7,1.8,3.1,3.9,4.3,6.1,1.2,2.3,2.2,4.6,3,7,.9,2.4,1.7,4.7,2.6,6.9l-7.9,26.1h2.3l6.8-22.4,7.2,22.4h13.3l-11-34ZM220.1,432l-8.6-26.6h-13.6l16.9,51.5,15.6-51.5h-2.3l-8.1,26.6ZM189.6,337.3c-.2-.6-.4-1.4-.6-2.2-.1-.9-.2-1.6-.2-2.2,0-2.3.6-4.7,1.7-7,1.2-2.3,2.9-3.9,5.3-4.7h-32.9c3.4,1.4,6.1,3.6,8.1,6.6,2,3,3.5,6.1,4.6,9.3l11.2,34.2h13.7l-11-34Z"></path><path fill="#EDF2F5" d="M479,371.4h13v-34.6c0-3.5.6-6.7,1.9-9.5,1.2-2.8,3.7-4.9,7.5-6h-21.4l-21.3,50.2h2.5l17.8-41.8v41.8ZM493.9,451.2c-1.2-2.9-1.9-6.1-1.9-9.6v-36.2h-13v36.2c0,3.6-.7,6.9-2,9.7-1.3,2.9-3.8,4.9-7.6,6h31.9c-3.8-1.2-6.3-3.2-7.5-6.1ZM430.4,438.1l-16-32.7h-14.8l25.1,51.7,22-51.7h-2.5l-13.9,32.7ZM346.9,321.2c3.8,1.2,7,3.1,9.8,5.8,2.8,2.7,4.2,6.2,4.2,10.5v33.8h2.1v-41l20,41h14.7l-24.5-50.2h-26.3ZM363.1,440v-34.6h-2.1v34.6c0,4.5-1.3,8.2-3.9,11-2.6,2.8-6,4.9-10.1,6.3h30.3c-4.1-1.4-7.5-3.5-10.2-6.2-2.7-2.7-4-6.4-4-11.1Z"></path><path fill="#EDF2F5" d="M602.8,457.3h34.2c-3.4-1-6.1-3-8.3-6-2.1-3-3.8-6-5-9.1l-13.9-36.8h-13.8c.7,1.8,1.7,4.2,2.9,7.3,1.6,4.1,3.3,8.4,5,12.8,1.8,4.5,3.3,8.6,4.6,12.5,1.3,3.9,2,6.6,2,8,0,2.3-.8,4.6-2.2,6.8-1.5,2.2-3.3,3.7-5.5,4.5ZM577.4,319.4l-19.9,51.9h2.5l11.6-30.3,11.4,30.3h14.1l-19.7-51.9ZM535.2,436.7l12-31.3h-2.7l-14.2,37.1c-1.2,2.8-3.1,5.8-5.8,8.7-2.7,3-5.6,5-8.5,6h28.4c-3-1-5.5-2.5-7.7-4.5-2.1-2-3.2-4.6-3.2-8s.2-2.8.5-4.2c.3-1.4.7-2.7,1.3-4Z"></path></g><g><path fill="#EDF2F5" d="M169.1,379.8h2.4l3.8,14.6,4.1-14.6h2.5l3.9,14.5,3.8-14.5h2.4l-5,17.2h-2.5l-4-13.9-4.1,13.9h-2.5s-4.8-17.2-4.8-17.2Z"></path><path fill="#EDF2F5" d="M219.1,393.2h-7.5l-1.4,3.8h-2.4l6.2-17.1h2.6l6.2,17.1h-2.4l-1.4-3.8ZM215.3,382.7l-3.1,8.7h6.2l-3.1-8.7Z"></path><path fill="#EDF2F5" d="M239.9,379.9h2.4l6.3,14.1,6.3-14.1h2.4v17.1h-2.2v-12.8l-5.7,12.8h-1.6l-5.7-12.8v12.8h-2.2v-17.1h0Z"></path><path fill="#EDF2F5" d="M283.3,397.2c-4.8,0-8.6-3.6-8.6-8.8s3.8-8.8,8.6-8.8,8.6,3.6,8.6,8.8-3.8,8.8-8.6,8.8ZM283.3,395.2c3.6,0,6.4-2.6,6.4-6.8s-2.7-6.8-6.4-6.8-6.4,2.6-6.4,6.8,2.7,6.8,6.4,6.8Z"></path><path fill="#EDF2F5" d="M317,379.6c3.7,0,6.7,1.9,8,5.2h-2.7c-.9-2.1-2.8-3.2-5.3-3.2-3.6,0-6.3,2.6-6.3,6.8s2.7,6.8,6.3,6.8,4.4-1.2,5.3-3.2h2.7c-1.3,3.3-4.2,5.2-8,5.2s-8.6-3.6-8.6-8.8,3.8-8.8,8.6-8.8Z"></path><path fill="#EDF2F5" d="M350.5,397.2c-4.8,0-8.6-3.6-8.6-8.8s3.8-8.8,8.6-8.8,8.6,3.6,8.6,8.8-3.8,8.8-8.6,8.8ZM350.5,395.2c3.6,0,6.4-2.6,6.4-6.8s-2.7-6.8-6.4-6.8-6.4,2.6-6.4,6.8,2.7,6.8,6.4,6.8Z"></path><path fill="#EDF2F5" d="M389.9,379.8v17.2h-2.2l-9-13.7v13.7h-2.2v-17.2h2.2l9,13.7v-13.7h2.2Z"></path><path fill="#EDF2F5" d="M439.2,393.2h-7.5l-1.4,3.8h-2.4l6.2-17.1h2.6l6.2,17.1h-2.4l-1.4-3.8ZM435.5,382.7l-3.1,8.7h6.2l-3.1-8.7Z"></path><path fill="#EDF2F5" d="M467.8,379.6c3.7,0,6.7,1.9,8,5.2h-2.7c-.9-2.1-2.8-3.2-5.3-3.2-3.6,0-6.3,2.6-6.3,6.8s2.7,6.8,6.3,6.8,4.4-1.2,5.3-3.2h2.7c-1.3,3.3-4.2,5.2-8,5.2s-8.6-3.6-8.6-8.8,3.8-8.8,8.6-8.8Z"></path><path fill="#EDF2F5" d="M503.6,393.2h-7.5l-1.4,3.8h-2.4l6.2-17.1h2.6l6.2,17.1h-2.4l-1.4-3.8ZM499.8,382.7l-3.1,8.7h6.2l-3.1-8.7Z"></path><path fill="#EDF2F5" d="M538.9,388.4c0,5.3-3.5,8.6-9.1,8.6h-5.4v-17.2h5.4c5.6,0,9.1,3.3,9.1,8.6ZM529.8,395.2c4.5,0,6.8-2.5,6.8-6.7s-2.3-6.8-6.8-6.8h-3.1v13.5h3.1Z"></path><path fill="#EDF2F5" d="M565.5,381.6h-7v5.8h6.3v1.9h-6.3v5.9h7v1.9h-9.3v-17.2h9.3v1.8Z"></path><path fill="#EDF2F5" d="M583.2,379.9h2.4l6.3,14.1,6.3-14.1h2.4v17.1h-2.2v-12.8l-5.7,12.8h-1.6l-5.7-12.8v12.8h-2.2v-17.1h0Z"></path><path fill="#EDF2F5" d="M617.4,379.8h2.5l4.2,8.7,4.2-8.7h2.5l-5.6,10.7v6.5h-2.2v-6.5l-5.6-10.7Z"></path></g><g><path fill="#E4505C" d="M247.2,468.6h1.2v11.9h-1.2v-11.9Z"></path><path fill="#E4505C" d="M260.3,469.7h-4.2v-1.1h9.6v1.1h-4.2v10.8h-1.2v-10.8h0Z"></path><path fill="#E4505C" d="M272.5,474h4.4v1h-4.4v-1Z"></path><path fill="#E4505C" d="M305.3,475.4c.4.5.6,1.1.6,1.9s-.4,1.8-1.1,2.3c-.8.5-1.9.8-3.3.8h-5.5v-11.9h5.1c1.3,0,2.3.3,3.1.8s1.1,1.3,1.1,2.2-.2,1.2-.5,1.7c-.3.5-.8.8-1.3,1,.8.2,1.4.5,1.8,1ZM297.2,469.6v4.3h3.8c1,0,1.7-.2,2.2-.5s.8-.9.8-1.6-.3-1.2-.8-1.6-1.3-.5-2.2-.5h-3.8ZM303.8,478.9c.5-.4.8-.9.8-1.7,0-1.5-1.1-2.2-3.2-2.2h-4.2v4.5h4.2c1.1,0,1.9-.2,2.4-.5Z"></path><path fill="#E4505C" d="M314.5,468.6h1.2v11.9h-1.2v-11.9Z"></path><path fill="#E4505C" d="M325.4,468.6h1.2v10.8h6.6v1.1h-7.9v-11.8Z"></path><path fill="#E4505C" d="M341.1,468.6h4.8c1.2,0,2.4.2,3.3.8,1,.5,1.7,1.2,2.2,2.1.5.9.8,1.9.8,3.1s-.3,2.2-.8,3.1c-.5.9-1.3,1.6-2.2,2.1s-2.1.8-3.3.8h-4.8v-11.8ZM345.9,479.4c1,0,2-.2,2.7-.6s1.4-1,1.8-1.7.6-1.6.6-2.5-.2-1.8-.6-2.5c-.4-.7-1-1.3-1.8-1.7s-1.7-.6-2.7-.6h-3.5v9.7h3.5Z"></path><path fill="#E4505C" d="M362,479.2c-.9-.9-1.3-2.2-1.3-3.8v-6.8h1.2v6.7c0,1.4.3,2.4.9,3.1s1.5,1,2.7,1,2.1-.3,2.7-1,.9-1.7.9-3.1v-6.7h1.2v6.8c0,1.7-.4,3-1.3,3.8s-2,1.3-3.6,1.3-2.7-.4-3.6-1.3Z"></path><path fill="#E4505C" d="M389.9,468.6v11.9h-1l-7.6-9.6v9.6h-1.2v-11.9h1l7.6,9.6v-9.6h1.2Z"></path><path fill="#E4505C" d="M407.9,474.5h1.2v4.5c-.5.5-1.2.9-2,1.1-.8.3-1.5.4-2.4.4s-2.2-.3-3.2-.8-1.7-1.2-2.2-2.2-.8-2-.8-3.1.3-2.2.8-3.1c.5-.9,1.3-1.6,2.2-2.2,1-.5,2-.8,3.2-.8s1.7.1,2.5.4,1.4.7,1.9,1.3l-.8.8c-.9-.9-2.1-1.4-3.6-1.4s-1.8.2-2.6.6c-.8.4-1.4,1-1.8,1.8s-.7,1.6-.7,2.5.2,1.8.7,2.5,1,1.3,1.8,1.8c.8.4,1.6.6,2.6.6s2.2-.3,3.1-.9v-4h0Z"></path><path fill="#E4505C" d="M419.1,480.1c-.8-.3-1.4-.6-1.9-1.1l.5-1c.4.4,1,.8,1.7,1,.7.3,1.4.4,2.2.4s1.9-.2,2.4-.6c.5-.4.8-.9.8-1.5s-.1-.9-.4-1.1c-.3-.3-.6-.5-1.1-.6-.4-.1-1-.3-1.7-.5-.9-.2-1.6-.4-2.1-.6s-1-.5-1.4-1c-.4-.4-.6-1-.6-1.7s.2-1.1.5-1.6c.3-.5.8-.9,1.5-1.2.6-.3,1.5-.4,2.4-.4s1.3,0,2,.3,1.2.4,1.7.8l-.4,1c-.5-.3-1-.6-1.6-.7-.6-.2-1.1-.2-1.7-.2-1,0-1.8.2-2.3.6s-.8.9-.8,1.5.1.9.4,1.1c.3.3.6.5,1.1.7s1,.3,1.8.5c.9.2,1.6.4,2.1.6.5.2,1,.5,1.4,1,.4.4.6,1,.6,1.7s-.2,1.1-.5,1.6-.8.9-1.5,1.2-1.5.4-2.5.4c-.9,0-1.7-.2-2.5-.4Z"></path><path fill="#E4505C" d="M443.1,479.4v1.1h-9.7v-.9l7.9-9.9h-7.7v-1.1h9.4v.9l-7.8,9.9h8Z"></path><path fill="#E4505C" d="M459.7,479.4v1.1h-8.4v-11.9h8.1v1.1h-6.9v4.2h6.1v1.1h-6.1v4.4h7.1Z"></path><path fill="#E4505C" d="M478.3,468.6v11.9h-1l-7.6-9.6v9.6h-1.2v-11.9h1l7.6,9.6v-9.6h1.2Z"></path><path fill="#E4505C" d="M490.2,469.7h-4.2v-1.1h9.6v1.1h-4.2v10.8h-1.2v-10.8h0Z"></path><path fill="#E4505C" d="M511.5,480.5l-2.7-3.8c-.3,0-.6,0-1,0h-3.2v3.8h-1.2v-11.9h4.4c1.5,0,2.7.4,3.5,1.1.9.7,1.3,1.7,1.3,3s-.2,1.7-.7,2.3c-.5.6-1.1,1.1-2,1.4l2.9,4.1h-1.4ZM510.5,474.9c.6-.5.9-1.2.9-2.2s-.3-1.7-.9-2.2c-.6-.5-1.5-.8-2.7-.8h-3.1v5.9h3.1c1.2,0,2.1-.3,2.7-.8Z"></path><path fill="#E4505C" d="M522.5,479.2c-.9-.9-1.3-2.2-1.3-3.8v-6.8h1.2v6.7c0,1.4.3,2.4.9,3.1s1.5,1,2.7,1,2.1-.3,2.7-1,.9-1.7.9-3.1v-6.7h1.2v6.8c0,1.7-.4,3-1.3,3.8-.8.9-2,1.3-3.6,1.3s-2.7-.4-3.6-1.3Z"></path><path fill="#E4505C" d="M552.8,468.6v11.9h-1.2v-9.5l-4.7,8h-.6l-4.7-7.9v9.4h-1.2v-11.9h1l5.2,8.8,5.1-8.8h1Z"></path></g></g>
<line x1="98.9" y1="3.77441" x2="98.9" y2="39.7744" stroke="#46545F"/>
<g transform="translate(38.9 0)">
<path d="M79.7948 4.84811C79.7948 7.09795 77.938 8.92181 75.6474 8.92181C73.3569 8.92181 71.5 7.09795 71.5 4.84811C71.5 2.59827 73.3569 0.774414 75.6474 0.774414C77.938 0.774414 79.7948 2.59827 79.7948 4.84811Z" fill="#E4505C"/>
<path d="M92.7975 4.84811C92.7975 7.09795 90.9407 8.92181 88.6501 8.92181C86.3596 8.92181 84.5027 7.09795 84.5027 4.84811C84.5027 2.59827 86.3596 0.774414 88.6501 0.774414C90.9407 0.774414 92.7975 2.59827 92.7975 4.84811Z" fill="#EDF2F5"/>
<path d="M105.8 4.84811C105.8 7.09795 103.943 8.92181 101.653 8.92181C99.3622 8.92181 97.5054 7.09795 97.5054 4.84811C97.5054 2.59827 99.3622 0.774414 101.653 0.774414C103.943 0.774414 105.8 2.59827 105.8 4.84811Z" fill="#E4505C"/>
<path d="M72.1277 13.9864V11.9373H72.7182C72.8643 11.9373 72.9753 11.9499 73.0512 11.975C73.1508 12.0077 73.2372 12.0673 73.3102 12.154C73.3833 12.2406 73.4402 12.3501 73.481 12.4824C73.5218 12.6138 73.5422 12.7699 73.5422 12.9507C73.5422 13.1827 73.5076 13.3798 73.4383 13.5419C73.369 13.7031 73.2799 13.8177 73.1708 13.8858C73.0626 13.9529 72.9208 13.9864 72.7453 13.9864H72.1277ZM72.3539 13.7446H72.7182C72.8653 13.7446 72.9768 13.7213 73.0527 13.6747C73.1285 13.6272 73.1869 13.5512 73.2277 13.4469C73.2818 13.308 73.3088 13.1417 73.3088 12.9479C73.3088 12.7401 73.2799 12.577 73.222 12.4587C73.1651 12.3394 73.0915 12.2597 73.0014 12.2196C72.9407 12.1926 72.8444 12.1791 72.7125 12.1791H72.3539V13.7446Z" fill="#EDF2F5"/>
<path d="M74.9791 13.9864V11.9373H75.2054V13.9864H74.9791Z" fill="#EDF2F5"/>
<path d="M77.4862 13.1827V12.9423L78.2105 12.9409V13.7013C78.0995 13.8075 77.9847 13.8876 77.8661 13.9417C77.7475 13.9948 77.6256 14.0213 77.5004 14.0213C77.3334 14.0213 77.1845 13.9803 77.0536 13.8983C76.9227 13.8163 76.8188 13.6966 76.7419 13.5391C76.666 13.3816 76.6281 13.1925 76.6281 12.9716C76.6281 12.748 76.6665 12.5532 76.7433 12.3874C76.8202 12.2215 76.9208 12.0994 77.045 12.0212C77.1693 11.942 77.3164 11.9024 77.4862 11.9024C77.6114 11.9024 77.721 11.9252 77.8149 11.9708C77.9088 12.0165 77.9861 12.0813 78.0469 12.1651C78.1076 12.249 78.1531 12.3641 78.1835 12.5104L77.98 12.5775C77.9525 12.4619 77.9178 12.3757 77.8761 12.3189C77.8343 12.2611 77.7793 12.2159 77.711 12.1833C77.6427 12.1507 77.5659 12.1344 77.4805 12.1344C77.3562 12.1344 77.249 12.1642 77.1589 12.2238C77.0697 12.2825 76.9976 12.3743 76.9426 12.4992C76.8885 12.6241 76.8615 12.7764 76.8615 12.9563C76.8615 13.2302 76.9198 13.4357 77.0365 13.5727C77.1532 13.7087 77.305 13.7767 77.4919 13.7767C77.581 13.7767 77.6721 13.7558 77.7651 13.7138C77.859 13.6719 77.9335 13.6221 77.9885 13.5643V13.1827H77.4862Z" fill="#EDF2F5"/>
<path d="M79.6631 13.9864V11.9373H79.8894V13.9864H79.6631Z" fill="#EDF2F5"/>
<path d="M81.803 13.9864V12.1791H81.2395V11.9373H82.5956V12.1791H82.0293V13.9864H81.803Z" fill="#EDF2F5"/>
<path d="M83.5388 13.9864L84.1962 11.9373H84.4396L85.1397 13.9864H84.8807L84.6815 13.3658H83.9671L83.7793 13.9864H83.5388ZM84.0326 13.145H84.6118L84.4339 12.5775C84.3789 12.4032 84.3385 12.2616 84.3129 12.1526C84.2911 12.2839 84.2603 12.4144 84.2204 12.5439L84.0326 13.145Z" fill="#EDF2F5"/>
<path d="M86.3845 13.9864V11.9373H86.6108V13.7446H87.4532V13.9864H86.3845Z" fill="#EDF2F5"/>
<path d="M90.8579 13.9864V12.1791H90.2944V11.9373H91.6505V12.1791H91.0842V13.9864H90.8579Z" fill="#EDF2F5"/>
<path d="M92.9623 13.9864V11.9373H94.1989V12.1791H93.1885V12.8067H94.1348V13.0471H93.1885V13.7446H94.2387V13.9864H92.9623Z" fill="#EDF2F5"/>
<path d="M95.5533 13.3281L95.7667 13.3057C95.7781 13.4185 95.8037 13.5065 95.8436 13.5699C95.8844 13.6323 95.9422 13.6826 96.0172 13.7208C96.0921 13.759 96.1766 13.7781 96.2705 13.7781C96.4052 13.7781 96.5096 13.746 96.5836 13.6817C96.6585 13.6165 96.696 13.5321 96.696 13.4287C96.696 13.3681 96.6822 13.3155 96.6547 13.2708C96.6281 13.2251 96.5874 13.1878 96.5323 13.1589C96.4783 13.13 96.3606 13.0895 96.1794 13.0373C96.0181 12.9907 95.9033 12.9437 95.835 12.8962C95.7667 12.8486 95.7136 12.7885 95.6757 12.7158C95.6377 12.6422 95.6187 12.5593 95.6187 12.467C95.6187 12.3012 95.6733 12.1656 95.7824 12.0603C95.8915 11.955 96.0385 11.9024 96.2235 11.9024C96.3507 11.9024 96.4617 11.927 96.5565 11.9764C96.6523 12.0258 96.7263 12.0966 96.7785 12.1889C96.8316 12.2811 96.8601 12.3897 96.8639 12.5146L96.6462 12.5341C96.6348 12.4009 96.594 12.3021 96.5238 12.2378C96.4545 12.1735 96.3568 12.1414 96.2306 12.1414C96.1026 12.1414 96.0049 12.1698 95.9375 12.2266C95.8701 12.2825 95.8365 12.3552 95.8365 12.4447C95.8365 12.5276 95.8611 12.5919 95.9105 12.6376C95.9598 12.6832 96.0708 12.7294 96.2435 12.776C96.4123 12.8216 96.5309 12.8612 96.5992 12.8948C96.7036 12.9469 96.7823 13.0159 96.8354 13.1016C96.8886 13.1864 96.9151 13.288 96.9151 13.4063C96.9151 13.5237 96.8871 13.6309 96.8312 13.7278C96.7752 13.8238 96.6988 13.8969 96.6021 13.9473C96.5062 13.9976 96.3905 14.0227 96.2548 14.0227C96.0433 14.0227 95.8744 13.9603 95.7482 13.8354C95.623 13.7106 95.558 13.5415 95.5533 13.3281Z" fill="#EDF2F5"/>
<path d="M98.7406 13.9864V12.1791H98.177V11.9373H99.5332V12.1791H98.9668V13.9864H98.7406Z" fill="#EDF2F5"/>
<path d="M102.528 13.9864V11.9373H102.754V13.7446H103.597V13.9864H102.528Z" fill="#EDF2F5"/>
<path d="M104.954 13.9864V11.9373H106.191V12.1791H105.18V12.8067H106.127V13.0471H105.18V13.7446H106.23V13.9864H104.954Z" fill="#EDF2F5"/>
<path d="M107.434 13.9864L108.091 11.9373H108.335L109.035 13.9864H108.776L108.577 13.3658H107.862L107.674 13.9864H107.434ZM107.928 13.145H108.507L108.329 12.5775C108.274 12.4032 108.234 12.2616 108.208 12.1526C108.186 12.2839 108.155 12.4144 108.116 12.5439L107.928 13.145Z" fill="#EDF2F5"/>
<path d="M110.293 13.9864V11.9373H111.051C111.209 11.9373 111.326 11.9564 111.401 11.9946C111.477 12.0328 111.539 12.0966 111.588 12.1861C111.636 12.2746 111.66 12.3776 111.66 12.495C111.66 12.6497 111.619 12.775 111.536 12.871C111.455 12.967 111.336 13.028 111.179 13.0541C111.243 13.0914 111.291 13.1291 111.324 13.1673C111.392 13.2456 111.451 13.3327 111.502 13.4287L111.801 13.9864H111.516L111.289 13.5601C111.2 13.3933 111.134 13.281 111.088 13.2232C111.043 13.1655 111 13.1268 110.957 13.1072C110.915 13.0867 110.857 13.0765 110.781 13.0765H110.519V13.9864H110.293ZM110.519 12.8416H111.005C111.112 12.8416 111.192 12.8291 111.247 12.8039C111.302 12.7787 111.346 12.7391 111.378 12.6851C111.411 12.6311 111.427 12.5682 111.427 12.4964C111.427 12.393 111.396 12.3119 111.334 12.2532C111.273 12.1936 111.181 12.1637 111.06 12.1637H110.519V12.8416Z" fill="#EDF2F5"/>
<path d="M113.09 13.9864V11.9373H113.322L114.221 13.5461V11.9373H114.438V13.9864H114.206L113.308 12.3762V13.9864H113.09Z" fill="#EDF2F5"/>
<path d="M115.943 13.9864V11.9373H116.169V13.9864H115.943Z" fill="#EDF2F5"/>
<path d="M117.637 13.9864V11.9373H117.869L118.769 13.5461V11.9373H118.985V13.9864H118.753L117.855 12.3762V13.9864H117.637Z" fill="#EDF2F5"/>
<path d="M121.253 13.1827V12.9423L121.977 12.9409V13.7013C121.866 13.8075 121.751 13.8876 121.633 13.9417C121.514 13.9948 121.392 14.0213 121.267 14.0213C121.1 14.0213 120.951 13.9803 120.82 13.8983C120.689 13.8163 120.585 13.6966 120.509 13.5391C120.433 13.3816 120.395 13.1925 120.395 12.9716C120.395 12.748 120.433 12.5532 120.51 12.3874C120.587 12.2215 120.687 12.0994 120.812 12.0212C120.936 11.942 121.083 11.9024 121.253 11.9024C121.378 11.9024 121.488 11.9252 121.582 11.9708C121.676 12.0165 121.753 12.0813 121.814 12.1651C121.874 12.249 121.92 12.3641 121.95 12.5104L121.747 12.5775C121.719 12.4619 121.685 12.3757 121.643 12.3189C121.601 12.2611 121.546 12.2159 121.478 12.1833C121.409 12.1507 121.333 12.1344 121.247 12.1344C121.123 12.1344 121.016 12.1642 120.926 12.2238C120.836 12.2825 120.764 12.3743 120.709 12.4992C120.655 12.6241 120.628 12.7764 120.628 12.9563C120.628 13.2302 120.687 13.4357 120.803 13.5727C120.92 13.7087 121.072 13.7767 121.259 13.7767C121.348 13.7767 121.439 13.7558 121.532 13.7138C121.626 13.6719 121.7 13.6221 121.755 13.5643V13.1827H121.253Z" fill="#EDF2F5"/>
<path d="M72.2089 34.5175C72.2089 33.7648 72.3775 33.1868 72.7146 32.7834C73.0518 32.378 73.4717 32.1753 73.9743 32.1753C74.2992 32.1753 74.5955 32.2656 74.8632 32.4462C75.1309 32.6268 75.3424 32.8898 75.4977 33.235C75.655 33.5782 75.7337 33.9876 75.7337 34.4633C75.7337 35.1176 75.5825 35.6504 75.28 36.0619C74.947 36.5155 74.5107 36.7423 73.9713 36.7423C73.4278 36.7423 72.9905 36.5094 72.6595 36.0438C72.3591 35.6223 72.2089 35.1135 72.2089 34.5175ZM72.7116 34.5265C72.7116 35.0704 72.8331 35.4929 73.0763 35.7939C73.3215 36.093 73.6188 36.2425 73.9682 36.2425C74.3258 36.2425 74.6252 36.091 74.8663 35.7879C75.1094 35.4848 75.231 35.0393 75.231 34.4512C75.231 34.0719 75.1687 33.7327 75.044 33.4337C74.948 33.2049 74.8029 33.0222 74.6088 32.8857C74.4167 32.7473 74.2063 32.678 73.9774 32.678C73.6096 32.678 73.3062 32.8285 73.0671 33.1296C72.8301 33.4307 72.7116 33.8963 72.7116 34.5265Z" fill="#EDF2F5"/>
<path d="M78.6003 36.667V32.2535H79.0999L81.037 35.7187V32.2535H81.5029V36.667H81.0033L79.0693 33.1988V36.667H78.6003Z" fill="#EDF2F5"/>
<path d="M84.5596 36.667V32.2535H85.0469V36.1462H86.8614V36.667H84.5596Z" fill="#EDF2F5"/>
<path d="M89.8047 36.667V32.2535H90.292V36.667H89.8047Z" fill="#EDF2F5"/>
<path d="M93.3916 36.667V32.2535H93.8912L95.8283 35.7187V32.2535H96.2942V36.667H95.7946L93.8606 33.1988V36.667H93.3916Z" fill="#EDF2F5"/>
<path d="M99.3907 36.667V32.2535H102.054V32.7744H99.8781V34.1261H101.916V34.6439H99.8781V36.1462H102.14V36.667H99.3907Z" fill="#EDF2F5"/>
<path d="M104.838 35.3423V34.7974H106.227V35.3423H104.838Z" fill="#EDF2F5"/>
<path d="M109.994 36.667V32.7744H108.781V32.2535H111.702V32.7744H110.482V36.667H109.994Z" fill="#EDF2F5"/>
<path d="M114.452 36.667V32.2535H116.085C116.427 32.2535 116.678 32.2947 116.839 32.377C117.003 32.4592 117.137 32.5967 117.241 32.7894C117.345 32.9801 117.397 33.2019 117.397 33.4547C117.397 33.7879 117.308 34.0578 117.131 34.2646C116.955 34.4713 116.698 34.6028 116.361 34.659C116.498 34.7392 116.602 34.8205 116.674 34.9028C116.819 35.0714 116.947 35.2591 117.057 35.4658L117.701 36.667H117.088L116.597 35.7488C116.407 35.3895 116.263 35.1477 116.165 35.0232C116.069 34.8988 115.975 34.8155 115.883 34.7734C115.793 34.7292 115.667 34.7071 115.503 34.7071H114.939V36.667H114.452ZM114.939 34.2014H115.987C116.216 34.2014 116.39 34.1743 116.508 34.1201C116.627 34.0659 116.721 33.9806 116.79 33.8642C116.86 33.7478 116.895 33.6123 116.895 33.4577C116.895 33.235 116.828 33.0604 116.695 32.9339C116.563 32.8055 116.365 32.7412 116.104 32.7412H114.939V34.2014Z" fill="#EDF2F5"/>
<path d="M120.025 36.667L121.441 32.2535H121.965L123.473 36.667H122.915L122.486 35.3303H120.947L120.543 36.667H120.025ZM121.088 34.8546H122.336L121.953 33.6324C121.834 33.257 121.747 32.952 121.692 32.7172C121.645 33.0001 121.579 33.2811 121.493 33.5601L121.088 34.8546Z" fill="#EDF2F5"/>
<path d="M126.214 36.667V32.2535H126.701V36.667H126.214Z" fill="#EDF2F5"/>
<path d="M129.801 36.667V32.2535H130.3L132.238 35.7187V32.2535H132.703V36.667H132.204L130.27 33.1988V36.667H129.801Z" fill="#EDF2F5"/>
<path d="M135.883 36.667V32.2535H136.37V36.667H135.883Z" fill="#EDF2F5"/>
<path d="M139.47 36.667V32.2535H139.969L141.906 35.7187V32.2535H142.372V36.667H141.873L139.939 33.1988V36.667H139.47Z" fill="#EDF2F5"/>
<path d="M147.194 34.9359V34.4181L148.754 34.4151V36.0528C148.515 36.2816 148.268 36.4542 148.013 36.5707C147.757 36.6851 147.495 36.7423 147.225 36.7423C146.865 36.7423 146.545 36.6539 146.263 36.4773C145.981 36.3007 145.757 36.0428 145.591 35.7036C145.428 35.3644 145.346 34.957 145.346 34.4813C145.346 33.9996 145.429 33.5802 145.594 33.2229C145.76 32.8657 145.977 32.6028 146.244 32.4342C146.512 32.2636 146.829 32.1783 147.194 32.1783C147.464 32.1783 147.7 32.2274 147.902 32.3258C148.105 32.4241 148.271 32.5636 148.402 32.7442C148.533 32.9249 148.631 33.1727 148.696 33.4879L148.258 33.6324C148.199 33.3835 148.124 33.1978 148.034 33.0754C147.944 32.951 147.826 32.8536 147.679 32.7834C147.532 32.7131 147.366 32.678 147.182 32.678C146.914 32.678 146.684 32.7422 146.489 32.8707C146.297 32.9971 146.142 33.1948 146.024 33.4638C145.907 33.7327 145.849 34.0609 145.849 34.4482C145.849 35.0383 145.975 35.4808 146.226 35.7759C146.477 36.0689 146.804 36.2154 147.207 36.2154C147.399 36.2154 147.595 36.1702 147.795 36.0799C147.997 35.9896 148.158 35.8822 148.276 35.7578V34.9359H147.194Z" fill="#EDF2F5"/>
<path d="M73.1076 42.172L72.6537 40.1229H72.8856L73.146 41.4661C73.1735 41.604 73.1977 41.7438 73.2186 41.8854L73.2954 41.5067L73.6213 40.1229H73.8945L74.1393 41.16C74.1991 41.4125 74.2437 41.6544 74.2731 41.8854C74.2949 41.7522 74.3229 41.6036 74.357 41.4396L74.626 40.1229H74.8537L74.3841 42.172H74.1663L73.8049 40.6107L73.7508 40.3703C73.7347 40.4597 73.7181 40.5399 73.701 40.6107L73.3381 42.172H73.1076Z" fill="#EDF2F5"/>
<path d="M75.8651 42.172L76.5226 40.1229H76.7659L77.466 42.172H77.2071L77.0078 41.5514H76.2935L76.1056 42.172H75.8651ZM76.3589 41.3305H76.9381L76.7602 40.7631C76.7052 40.5888 76.6649 40.4472 76.6393 40.3381C76.6174 40.4695 76.5866 40.6 76.5468 40.7295L76.3589 41.3305Z" fill="#EDF2F5"/>
<path d="M78.718 42.172V40.1229H79.0581L79.4637 41.5737L79.5448 41.8771C79.5647 41.8016 79.5951 41.6921 79.6359 41.5486L80.0457 40.1229H80.3502V42.172H80.1325V40.4569L79.6344 42.172H79.4309L78.9357 40.4276V42.172H78.718Z" fill="#EDF2F5"/>
<path d="M81.7317 41.174C81.7317 40.8246 81.8099 40.5562 81.9665 40.3689C82.123 40.1807 82.318 40.0865 82.5513 40.0865C82.7022 40.0865 82.8397 40.1285 82.964 40.2123C83.0883 40.2962 83.1865 40.4183 83.2586 40.5785C83.3316 40.7379 83.3682 40.928 83.3682 41.1488C83.3682 41.4526 83.298 41.7 83.1575 41.891C83.0029 42.1016 82.8004 42.2069 82.5499 42.2069C82.2976 42.2069 82.0945 42.0988 81.9408 41.8826C81.8014 41.687 81.7317 41.4507 81.7317 41.174ZM81.965 41.1782C81.965 41.4307 82.0215 41.6269 82.1344 41.7666C82.2482 41.9055 82.3863 41.9749 82.5485 41.9749C82.7145 41.9749 82.8535 41.9045 82.9654 41.7638C83.0783 41.6231 83.1348 41.4163 83.1348 41.1432C83.1348 40.9671 83.1058 40.8096 83.048 40.6708C83.0034 40.5646 82.936 40.4798 82.8459 40.4164C82.7567 40.3521 82.659 40.32 82.5528 40.32C82.382 40.32 82.2411 40.3899 82.1301 40.5296C82.0201 40.6694 81.965 40.8856 81.965 41.1782Z" fill="#EDF2F5"/>
<path d="M85.9492 41.4535L86.1769 41.522C86.1266 41.7522 86.0384 41.9241 85.9122 42.0378C85.787 42.1506 85.6343 42.2069 85.454 42.2069C85.2956 42.2069 85.1599 42.1692 85.047 42.0937C84.9351 42.0173 84.843 41.8952 84.7709 41.7275C84.6998 41.5598 84.6642 41.3618 84.6642 41.1335C84.6642 40.9079 84.6998 40.7174 84.7709 40.5618C84.843 40.4052 84.9403 40.2873 85.0627 40.2081C85.185 40.128 85.3217 40.0879 85.4725 40.0879C85.6376 40.0879 85.7794 40.1387 85.898 40.2403C86.0166 40.3409 86.0996 40.4891 86.147 40.6848L85.925 40.7477C85.8491 40.4625 85.6969 40.32 85.4682 40.32C85.3544 40.32 85.2557 40.3488 85.1722 40.4066C85.0888 40.4635 85.0219 40.5525 84.9716 40.6736C84.9223 40.7947 84.8976 40.948 84.8976 41.1335C84.8976 41.4139 84.9479 41.6245 85.0484 41.7652C85.149 41.905 85.2828 41.9749 85.4497 41.9749C85.5731 41.9749 85.6793 41.932 85.7685 41.8463C85.8586 41.7596 85.9189 41.6287 85.9492 41.4535Z" fill="#EDF2F5"/>
<path d="M87.4744 41.174C87.4744 40.8246 87.5527 40.5562 87.7092 40.3689C87.8657 40.1807 88.0607 40.0865 88.2941 40.0865C88.4449 40.0865 88.5825 40.1285 88.7067 40.2123C88.831 40.2962 88.9292 40.4183 89.0013 40.5785C89.0744 40.7379 89.1109 40.928 89.1109 41.1488C89.1109 41.4526 89.0407 41.7 88.9003 41.891C88.7456 42.1016 88.5431 42.2069 88.2926 42.2069C88.0403 42.2069 87.8373 42.0988 87.6836 41.8826C87.5441 41.687 87.4744 41.4507 87.4744 41.174ZM87.7078 41.1782C87.7078 41.4307 87.7642 41.6269 87.8771 41.7666C87.9909 41.9055 88.129 41.9749 88.2912 41.9749C88.4572 41.9749 88.5962 41.9045 88.7082 41.7638C88.8211 41.6231 88.8775 41.4163 88.8775 41.1432C88.8775 40.9671 88.8486 40.8096 88.7907 40.6708C88.7461 40.5646 88.6788 40.4798 88.5886 40.4164C88.4995 40.3521 88.4017 40.32 88.2955 40.32C88.1247 40.32 87.9838 40.3899 87.8728 40.5296C87.7628 40.6694 87.7078 40.8856 87.7078 41.1782Z" fill="#EDF2F5"/>
<path d="M90.471 42.172V40.1229H90.7029L91.6023 41.7317V40.1229H91.8186V42.172H91.5866L90.6887 40.5618V42.172H90.471Z" fill="#EDF2F5"/>
<path d="M94.7067 42.172L95.3641 40.1229H95.6075L96.3076 42.172H96.0486L95.8494 41.5514H95.135L94.9472 42.172H94.7067ZM95.2005 41.3305H95.7797L95.6018 40.7631C95.5468 40.5888 95.5064 40.4472 95.4808 40.3381C95.459 40.4695 95.4282 40.6 95.3883 40.7295L95.2005 41.3305Z" fill="#EDF2F5"/>
<path d="M98.3479 41.6283L98.5543 41.6604C98.5306 41.8375 98.4708 41.9726 98.375 42.0658C98.2801 42.1589 98.1658 42.2055 98.032 42.2055C97.8698 42.2055 97.736 42.1403 97.6307 42.0098C97.5264 41.8785 97.4742 41.6846 97.4742 41.4284C97.4742 41.1703 97.5268 40.9769 97.6321 40.8483C97.7384 40.7188 97.8745 40.654 98.0406 40.654C98.1686 40.654 98.2763 40.6932 98.3636 40.7714C98.4518 40.8497 98.5083 40.9671 98.5329 41.1237L98.3294 41.1614C98.3095 41.0608 98.2749 40.9858 98.2255 40.9364C98.1762 40.8861 98.1169 40.8609 98.0477 40.8609C97.9443 40.8609 97.8584 40.9061 97.7901 40.9965C97.7227 41.0859 97.6891 41.2285 97.6891 41.4242C97.6891 41.6264 97.7213 41.7727 97.7858 41.8631C97.8513 41.9535 97.9348 41.9987 98.0363 41.9987C98.116 41.9987 98.1838 41.9688 98.2398 41.9092C98.2967 41.8486 98.3328 41.755 98.3479 41.6283Z" fill="#EDF2F5"/>
<path d="M100.617 41.9889C100.547 42.0606 100.474 42.1147 100.398 42.151C100.322 42.1874 100.244 42.2055 100.162 42.2055C100.033 42.2055 99.93 42.1673 99.8532 42.0909C99.7763 42.0145 99.7379 41.9115 99.7379 41.782C99.7379 41.6963 99.7559 41.6203 99.792 41.5542C99.828 41.488 99.8774 41.4363 99.94 41.399C100.003 41.3618 100.097 41.3343 100.225 41.3166C100.395 41.2923 100.521 41.2634 100.6 41.2299L100.602 41.1656C100.602 41.064 100.583 40.9927 100.546 40.9517C100.494 40.8921 100.414 40.8623 100.306 40.8623C100.208 40.8623 100.135 40.8823 100.087 40.9224C100.038 40.9615 100.003 41.0356 99.9798 41.1446L99.7735 41.1111C99.8029 40.9517 99.8622 40.8357 99.9514 40.7631C100.041 40.6904 100.17 40.654 100.337 40.654C100.467 40.654 100.569 40.6783 100.643 40.7267C100.717 40.7742 100.763 40.8334 100.782 40.9042C100.802 40.975 100.812 41.0785 100.812 41.2145V41.55C100.812 41.7848 100.817 41.933 100.825 41.9945C100.835 42.055 100.853 42.1142 100.879 42.172H100.66C100.638 42.1207 100.624 42.0597 100.617 41.9889ZM100.6 41.427C100.523 41.4643 100.409 41.4959 100.257 41.522C100.169 41.5369 100.107 41.5542 100.072 41.5737C100.037 41.5924 100.01 41.6194 99.9898 41.6548C99.9708 41.6893 99.9613 41.7294 99.9613 41.775C99.9613 41.8458 99.9836 41.9027 100.028 41.9455C100.073 41.9875 100.134 42.0084 100.213 42.0084C100.288 42.0084 100.356 41.9893 100.417 41.9511C100.478 41.9129 100.524 41.8621 100.555 41.7988C100.585 41.7345 100.6 41.6413 100.6 41.5192V41.427Z" fill="#EDF2F5"/>
<path d="M103.021 42.172V41.9847C102.983 42.0564 102.934 42.1114 102.874 42.1496C102.814 42.1869 102.75 42.2055 102.68 42.2055C102.534 42.2055 102.408 42.138 102.3 42.0029C102.194 41.8668 102.141 41.6758 102.141 41.4298C102.141 41.2611 102.165 41.1181 102.212 41.0007C102.26 40.8833 102.323 40.7961 102.402 40.7393C102.481 40.6824 102.569 40.654 102.666 40.654C102.735 40.654 102.799 40.6722 102.858 40.7085C102.918 40.7439 102.967 40.7938 103.006 40.8581V40.1229H103.217V42.172H103.021ZM102.356 41.4312C102.356 41.6231 102.39 41.7657 102.457 41.8589C102.525 41.9521 102.605 41.9987 102.695 41.9987C102.784 41.9987 102.861 41.9539 102.927 41.8645C102.992 41.775 103.025 41.6399 103.025 41.4591C103.025 41.2513 102.992 41.0999 102.927 41.0049C102.861 40.9089 102.779 40.8609 102.679 40.8609C102.591 40.8609 102.515 40.907 102.451 40.9993C102.388 41.0906 102.356 41.2346 102.356 41.4312Z" fill="#EDF2F5"/>
<path d="M105.472 41.694L105.688 41.7261C105.652 41.8845 105.587 42.0043 105.492 42.0853C105.398 42.1655 105.281 42.2055 105.142 42.2055C104.966 42.2055 104.824 42.1403 104.715 42.0098C104.607 41.8785 104.553 41.6893 104.553 41.4424C104.553 41.1861 104.607 40.9909 104.716 40.8567C104.827 40.7216 104.965 40.654 105.133 40.654C105.294 40.654 105.428 40.7202 105.535 40.8525C105.642 40.9848 105.696 41.1763 105.696 41.427L105.694 41.4941H104.769C104.778 41.6609 104.817 41.7867 104.887 41.8715C104.957 41.9563 105.043 41.9987 105.143 41.9987C105.301 41.9987 105.41 41.8971 105.472 41.694ZM104.782 41.2872H105.474C105.464 41.1586 105.436 41.0626 105.39 40.9993C105.322 40.907 105.236 40.8609 105.132 40.8609C105.038 40.8609 104.958 40.8996 104.891 40.9769C104.825 41.0533 104.789 41.1567 104.782 41.2872Z" fill="#EDF2F5"/>
<path d="M107.034 42.172V40.6876H107.222V40.8958C107.264 40.8185 107.317 40.7589 107.383 40.7169C107.448 40.675 107.52 40.654 107.598 40.654C107.685 40.654 107.759 40.6764 107.818 40.7211C107.879 40.7649 107.922 40.8292 107.948 40.914C107.997 40.8273 108.054 40.7626 108.117 40.7197C108.182 40.6759 108.253 40.654 108.331 40.654C108.449 40.654 108.543 40.6936 108.611 40.7728C108.679 40.852 108.713 40.9788 108.713 41.153V42.172H108.504V41.2369C108.504 41.1307 108.496 41.0556 108.48 41.0118C108.465 40.9671 108.44 40.9326 108.405 40.9084C108.37 40.8842 108.33 40.8721 108.287 40.8721C108.196 40.8721 108.123 40.9075 108.066 40.9783C108.009 41.0482 107.981 41.1586 107.981 41.3096V42.172H107.77V41.2075C107.77 41.0845 107.751 40.9979 107.712 40.9476C107.674 40.8972 107.621 40.8721 107.554 40.8721C107.458 40.8721 107.382 40.9103 107.326 40.9867C107.271 41.0622 107.243 41.2005 107.243 41.4018V42.172H107.034Z" fill="#EDF2F5"/>
<path d="M110.096 42.7437L110.074 42.5074C110.12 42.5224 110.16 42.5298 110.193 42.5298C110.238 42.5298 110.274 42.521 110.303 42.5033C110.332 42.4855 110.356 42.4581 110.375 42.4208C110.382 42.4077 110.409 42.3257 110.458 42.1748L109.987 40.6876H110.213L110.472 41.5472C110.504 41.6544 110.534 41.769 110.562 41.891C110.585 41.7755 110.614 41.6627 110.647 41.5528L110.912 40.6876H111.122L110.651 42.1971C110.59 42.3928 110.541 42.5233 110.505 42.5885C110.47 42.6547 110.429 42.7022 110.384 42.7311C110.339 42.76 110.288 42.7744 110.231 42.7744C110.192 42.7744 110.147 42.7642 110.096 42.7437Z" fill="#EDF2F5"/>
<path d="M71.7378 28.2994V17.8962H74.736C75.4777 17.8962 76.0413 17.9601 76.4266 18.0878C76.9323 18.2534 77.3706 18.5562 77.7415 18.9962C78.1123 19.4361 78.4013 19.992 78.6084 20.6638C78.8155 21.3308 78.9191 22.1233 78.9191 23.041C78.9191 24.219 78.7433 25.2196 78.3917 26.0428C78.0401 26.8612 77.5873 27.4431 77.0335 27.7885C76.4844 28.1291 75.7643 28.2994 74.8733 28.2994H71.7378ZM72.8865 27.0717H74.736C75.4826 27.0717 76.0485 26.9535 76.4338 26.7169C76.8191 26.4756 77.1153 26.0901 77.3224 25.5602C77.597 24.8553 77.7343 24.0109 77.7343 23.0269C77.7343 21.9719 77.5873 21.144 77.2935 20.5432C77.0046 19.9376 76.6313 19.5331 76.1737 19.3297C75.8655 19.1925 75.3766 19.1239 74.7071 19.1239H72.8865V27.0717Z" fill="#E4505C"/>
<path d="M88.6499 19.3652V17.8962H89.7119V19.3652H88.6499ZM88.6499 28.2994V20.7631H89.7119V28.2994H88.6499Z" fill="#E4505C"/>
<path d="M102.022 28.2994V19.1239H99.161V17.8962H106.046V19.1239H103.171V28.2994H102.022Z" fill="#E4505C"/>
<path d="M118.298 25.8725L119.396 26.0357C119.213 26.8399 118.881 27.4478 118.399 27.8594C117.923 28.2663 117.33 28.4697 116.622 28.4697C115.731 28.4697 115.009 28.1385 114.455 27.4762C113.906 26.8092 113.631 25.8488 113.631 24.5951C113.631 23.2941 113.908 22.303 114.462 21.6218C115.021 20.9358 115.726 20.5928 116.579 20.5928C117.393 20.5928 118.072 20.9287 118.616 21.6005C119.16 22.2723 119.433 23.2445 119.433 24.5171L119.425 24.8577H114.729C114.773 25.7045 114.973 26.3432 115.329 26.7737C115.685 27.2042 116.119 27.4195 116.629 27.4195C117.429 27.4195 117.985 26.9038 118.298 25.8725ZM114.794 23.8074H118.306C118.257 23.1546 118.115 22.6673 117.879 22.3456C117.537 21.8773 117.101 21.6431 116.572 21.6431C116.095 21.6431 115.688 21.8394 115.351 22.2321C115.013 22.62 114.828 23.1451 114.794 23.8074Z" fill="#E4505C"/>
<path d="M129.113 28.2994V17.8962H130.262V27.0717H134.539V28.2994H129.113Z" fill="#E4505C"/>
<path d="M148.366 25.8725L149.464 26.0357C149.281 26.8399 148.949 27.4478 148.467 27.8594C147.99 28.2663 147.398 28.4697 146.69 28.4697C145.799 28.4697 145.076 28.1385 144.522 27.4762C143.973 26.8092 143.699 25.8488 143.699 24.5951C143.699 23.2941 143.976 22.303 144.529 21.6218C145.088 20.9358 145.794 20.5928 146.646 20.5928C147.46 20.5928 148.139 20.9287 148.684 21.6005C149.228 22.2723 149.5 23.2445 149.5 24.5171L149.493 24.8577H144.797C144.84 25.7045 145.04 26.3432 145.396 26.7737C145.753 27.2042 146.186 27.4195 146.697 27.4195C147.496 27.4195 148.053 26.9038 148.366 25.8725ZM144.862 23.8074H148.373C148.325 23.1546 148.183 22.6673 147.947 22.3456C147.605 21.8773 147.169 21.6431 146.639 21.6431C146.162 21.6431 145.755 21.8394 145.418 22.2321C145.081 22.62 144.895 23.1451 144.862 23.8074Z" fill="#E4505C"/>
</g>
</svg>
